<svg xmlns="http://www.w3.org/2000/svg" aria-label="XING" role="img" viewBox="-76.8 -76.8 665.60 665.60" fill="#fff" stroke="#fff" stroke-width="0.00512"><g id="SVGRepo_bgCarrier" stroke-width="0" transform="translate(0,0), scale(1)"><rect x="-76.8" y="-76.8" width="665.60" height="665.60" rx="332.8" fill="#fff" strokewidth="0"></rect></g><g id="SVGRepo_tracerCarrier" stroke-linecap="round" stroke-linejoin="round"></g><g id="SVGRepo_iconCarrier"><rect width="512" height="512" rx="15%" fill="#07777"></rect><path d="M131 157l36 60v1l-54 94c-4 7-1 11 3 11h58c3 0 4 0 6-3l57-99v-2l-40-64-2-4-4-1h-56c-3 0-5 3-4 7zm217-74c-5 0-7 2-10 6L225 287v2l75 133c2 3 4 4 8 4h54c6 0 8-3 5-9l-74-128L406 90c2-4-1-7-5-7z" fill="#077"></path></g></svg>